<svg version="1.1" id="Icon_Set" xmlns="http://www.w3.org/2000/svg" x="0" y="0" viewBox="0 0 512 512" style="enable-background:new 0 0 512 512" xml:space="preserve"><style>.st0{fill:#fff}.st3{fill:#463218}.st4{fill:#fefe71}.st5{fill:#d6cd1e}</style><g id="SUNFLOWER"><path class="st4" d="M234.8 177.2c0 21.4 8 40.9 21.2 55.8 13.2-14.8 21.2-34.4 21.2-55.8s-8-40.9-21.2-55.8c-13.2 14.8-21.2 34.4-21.2 55.8z"/><path class="st5" d="M234.8 177.2c0 21.4 8 40.9 21.2 55.8V121.4c-13.2 14.8-21.2 34.4-21.2 55.8z"/><path class="st3" d="M256 239.9c-2 0-3.9-.9-5.2-2.4-14.8-16.7-23-38.1-23-60.4s8.2-43.7 23-60.4c1.3-1.5 3.2-2.4 5.2-2.4s3.9.9 5.2 2.4c14.8 16.7 23 38.1 23 60.4s-8.2 43.7-23 60.4c-1.3 1.6-3.2 2.4-5.2 2.4zm0-107.3c-9.2 13-14.2 28.5-14.2 44.5s5 31.6 14.2 44.5c9.2-13 14.2-28.5 14.2-44.5s-5-31.5-14.2-44.5z"/><path class="st4" d="M234.8 334.8c0 21.4 8 40.9 21.2 55.8 13.2-14.8 21.2-34.4 21.2-55.8s-8-40.9-21.2-55.8c-13.2 14.9-21.2 34.4-21.2 55.8z"/><path class="st5" d="M234.8 334.8c0 21.4 8 40.9 21.2 55.8V279.1c-13.2 14.8-21.2 34.3-21.2 55.7z"/><g><path class="st3" d="M256 397.6c-2 0-3.9-.9-5.2-2.4-14.8-16.7-23-38.1-23-60.4s8.2-43.7 23-60.4c1.3-1.5 3.2-2.4 5.2-2.4s3.9.9 5.2 2.4c14.8 16.7 23 38.1 23 60.4s-8.2 43.7-23 60.4c-1.3 1.6-3.2 2.4-5.2 2.4zm0-107.3c-9.2 13-14.2 28.5-14.2 44.5s5 31.6 14.2 44.5c9.2-13 14.2-28.5 14.2-44.5s-5-31.5-14.2-44.5z"/></g><g><path class="st4" d="M334.8 234.8c-21.4 0-40.9 8-55.8 21.2 14.8 13.2 34.4 21.2 55.8 21.2s40.9-8 55.8-21.2c-14.8-13.2-34.4-21.2-55.8-21.2z"/><path class="st5" d="M334.8 234.8c-21.4 0-40.9 8-55.8 21.2h111.6c-14.8-13.2-34.4-21.2-55.8-21.2z"/><g><path class="st3" d="M334.8 284.2c-22.3 0-43.7-8.2-60.4-23-1.5-1.3-2.4-3.2-2.4-5.2s.9-3.9 2.4-5.2c16.7-14.8 38.1-23 60.4-23 22.3 0 43.7 8.2 60.4 23 1.5 1.3 2.4 3.2 2.4 5.2s-.9 3.9-2.4 5.2c-16.6 14.8-38.1 23-60.4 23zM290.3 256c13 9.2 28.5 14.2 44.5 14.2s31.6-5 44.5-14.2c-13-9.2-28.5-14.2-44.5-14.2s-31.5 5-44.5 14.2z"/></g><g><path class="st4" d="M177.2 234.8c-21.4 0-40.9 8-55.8 21.2 14.8 13.2 34.4 21.2 55.8 21.2s40.9-8 55.8-21.2c-14.9-13.2-34.4-21.2-55.8-21.2z"/><path class="st5" d="M177.2 234.8c-21.4 0-40.9 8-55.8 21.2H233c-14.9-13.2-34.4-21.2-55.8-21.2z"/><g><path class="st3" d="M177.2 284.2c-22.3 0-43.7-8.2-60.4-23-1.5-1.3-2.4-3.2-2.4-5.2s.9-3.9 2.4-5.2c16.7-14.8 38.1-23 60.4-23 22.3 0 43.7 8.2 60.4 23 1.5 1.3 2.4 3.2 2.4 5.2s-.9 3.9-2.4 5.2c-16.7 14.8-38.2 23-60.4 23zM132.6 256c13 9.2 28.5 14.2 44.5 14.2s31.6-5 44.5-14.2c-13-9.2-28.5-14.2-44.5-14.2s-31.5 5-44.5 14.2z"/></g></g></g><g><path class="st4" d="M326.7 296.8c-15.1-15.1-34.6-23.3-54.4-24.5 1.2 19.8 9.3 39.3 24.5 54.4 15.1 15.1 34.6 23.3 54.4 24.5-1.2-19.8-9.3-39.3-24.5-54.4z"/><path class="st5" d="M326.7 296.8c-15.1-15.1-34.6-23.3-54.4-24.5l78.9 78.9c-1.2-19.8-9.3-39.3-24.5-54.4z"/><g><path class="st3" d="M351.2 358.2h-.4c-22.3-1.3-43.2-10.7-59-26.5-15.8-15.8-25.2-36.7-26.5-59-.1-2 .6-4 2-5.4s3.4-2.2 5.4-2c22.3 1.3 43.2 10.7 59 26.5 15.8 15.8 25.2 36.7 26.5 59 .1 2-.6 4-2 5.4-1.4 1.3-3.2 2-5 2zm-70.9-77.9c2.7 15.7 10.1 30.2 21.5 41.5 11.3 11.3 25.9 18.8 41.5 21.5-2.7-15.7-10.1-30.2-21.5-41.5-11.4-11.4-25.9-18.9-41.5-21.5z"/></g><g><path class="st4" d="M215.2 185.3c-15.1-15.1-34.6-23.3-54.4-24.5 1.2 19.8 9.3 39.3 24.5 54.4 15.1 15.1 34.6 23.3 54.4 24.5-1.2-19.8-9.3-39.3-24.5-54.4z"/><path class="st5" d="M215.2 185.3c-15.1-15.1-34.6-23.3-54.4-24.5l78.9 78.9c-1.2-19.8-9.3-39.3-24.5-54.4z"/><g><path class="st3" d="M239.7 246.7h-.4c-22.3-1.3-43.2-10.7-59-26.5-15.8-15.8-25.2-36.7-26.5-59-.1-2 .6-4 2-5.4 1.4-1.4 3.4-2.2 5.4-2 22.3 1.3 43.2 10.7 59 26.5 15.8 15.8 25.2 36.7 26.5 59 .1 2-.6 4-2 5.4-1.4 1.3-3.2 2-5 2zm-70.9-77.9c2.7 15.7 10.1 30.2 21.5 41.5 11.3 11.3 25.9 18.8 41.5 21.5-2.7-15.7-10.1-30.2-21.5-41.5-11.4-11.4-25.9-18.9-41.5-21.5z"/></g></g></g><g><path class="st4" d="M215.2 326.7c15.1-15.1 23.3-34.6 24.5-54.4-19.8 1.2-39.3 9.3-54.4 24.5-15.1 15.1-23.3 34.6-24.5 54.4 19.8-1.2 39.3-9.3 54.4-24.5z"/><path class="st5" d="M215.2 326.7c15.1-15.1 23.3-34.6 24.5-54.4l-78.9 78.9c19.8-1.2 39.3-9.3 54.4-24.5z"/><g><path class="st3" d="M160.8 358.2c-1.9 0-3.6-.7-4.9-2.1-1.4-1.4-2.2-3.4-2-5.4 1.3-22.3 10.7-43.2 26.5-59 15.8-15.8 36.7-25.2 59-26.5 2-.1 4 .6 5.4 2 1.4 1.4 2.2 3.4 2 5.4-1.3 22.3-10.7 43.2-26.5 59-15.8 15.8-36.7 25.2-59 26.5-.2.1-.4.1-.5.1zm70.9-77.9c-15.7 2.7-30.2 10.1-41.5 21.5-11.3 11.3-18.8 25.9-21.5 41.5 15.7-2.7 30.2-10.1 41.5-21.5 11.4-11.4 18.9-25.9 21.5-41.5zm-16.5 46.4z"/></g><g><path class="st4" d="M326.7 215.2c15.1-15.1 23.3-34.6 24.5-54.4-19.8 1.2-39.3 9.3-54.4 24.5-15.1 15.1-23.3 34.6-24.5 54.4 19.8-1.2 39.3-9.3 54.4-24.5z"/><path class="st5" d="M326.7 215.2c15.1-15.1 23.3-34.6 24.5-54.4l-78.9 78.9c19.8-1.2 39.3-9.3 54.4-24.5z"/><g><path class="st3" d="M272.3 246.7c-1.9 0-3.6-.7-4.9-2.1-1.4-1.4-2.2-3.4-2-5.4 1.3-22.3 10.7-43.2 26.5-59 15.8-15.8 36.7-25.2 59-26.5 2-.1 4 .6 5.4 2 1.4 1.4 2.2 3.4 2 5.4-1.3 22.3-10.7 43.2-26.5 59-15.8 15.8-36.7 25.2-59 26.5-.2.1-.4.1-.5.1zm70.9-77.9c-15.7 2.7-30.2 10.1-41.5 21.5-11.3 11.3-18.8 25.9-21.5 41.5 15.7-2.7 30.2-10.1 41.5-21.5 11.4-11.4 18.9-25.9 21.5-41.5z"/></g></g></g><g><circle cx="256" cy="256" r="47.3" style="fill:#fe8e46"/><circle cx="268" cy="244" r="35.3" style="fill:#e56823"/><path class="st3" d="M256 310.3c-30 0-54.3-24.4-54.3-54.3s24.4-54.3 54.3-54.3 54.3 24.4 54.3 54.3-24.3 54.3-54.3 54.3zm0-94.6c-22.2 0-40.3 18.1-40.3 40.3s18.1 40.3 40.3 40.3 40.3-18.1 40.3-40.3-18.1-40.3-40.3-40.3z"/><path class="st0" d="M267 237.1c-3.3-1.9-7.1-3-11-3v-10c5.6 0 11.2 1.5 16 4.3l-5 8.7zM287.8 256h-10c0-5.8-2.3-11.3-6.4-15.4l7.1-7.1c6 6 9.3 14 9.3 22.5z"/></g></g></svg>